<?xml version="1.0" encoding="UTF-8" standalone="no"?>
<!-- Created with Inkscape (http://www.inkscape.org/) -->

<svg
   xmlns:dc="http://purl.org/dc/elements/1.1/"
   xmlns:cc="http://creativecommons.org/ns#"
   xmlns:rdf="http://www.w3.org/1999/02/22-rdf-syntax-ns#"
   xmlns:svg="http://www.w3.org/2000/svg"
   xmlns="http://www.w3.org/2000/svg"
   xmlns:xlink="http://www.w3.org/1999/xlink"
   xmlns:sodipodi="http://sodipodi.sourceforge.net/DTD/sodipodi-0.dtd"
   xmlns:inkscape="http://www.inkscape.org/namespaces/inkscape"
   id="svg2"
   sodipodi:docname="refCreator.svg"
   height="31px"
   sodipodi:version="0.32"
   width="36px"
   version="1.1"
   inkscape:version="0.48.5 r10040">
  <sodipodi:namedview
     id="base"
     bordercolor="#666666"
     pagecolor="#ffffff"
     borderopacity="1.0"
     showguides="true"
     showgrid="false"
     inkscape:zoom="7.6129032"
     inkscape:cx="1.8260067"
     inkscape:cy="20.462548"
     inkscape:window-width="1920"
     inkscape:window-height="1098"
     inkscape:window-x="0"
     inkscape:window-y="31"
     inkscape:window-maximized="1"
     inkscape:current-layer="layer1" />
  <defs
     id="defs8">
    <marker
       style="overflow:visible"
       id="EmptyTriangleOutL"
       refX="0.0"
       refY="0.0"
       orient="auto"
       inkscape:stockid="EmptyTriangleOutL">
      <path
         transform="scale(0.8) translate(-6,0)"
         style="fill-rule:evenodd;fill:#FFFFFF;stroke:#000000;stroke-width:1.0pt"
         d="M 5.77,0.0 L -2.88,5.0 L -2.88,-5.0 L 5.77,0.0 z "
         id="path3980" />
    </marker>
    <marker
       style="overflow:visible"
       id="TriangleOutM"
       refX="0.0"
       refY="0.0"
       orient="auto"
       inkscape:stockid="TriangleOutM">
      <path
         transform="scale(0.4)"
         style="fill-rule:evenodd;stroke:#000000;stroke-width:1.0pt"
         d="M 5.77,0.0 L -2.88,5.0 L -2.88,-5.0 L 5.77,0.0 z "
         id="path3965" />
    </marker>
    <marker
       style="overflow:visible;"
       id="Arrow2Lend"
       refX="0.0"
       refY="0.0"
       orient="auto"
       inkscape:stockid="Arrow2Lend">
      <path
         transform="scale(1.1) rotate(180) translate(1,0)"
         d="M 8.7185878,4.0337352 L -2.2072895,0.016013256 L 8.7185884,-4.0017078 C 6.9730900,-1.6296469 6.9831476,1.6157441 8.7185878,4.0337352 z "
         style="fill-rule:evenodd;stroke-width:0.62500000;stroke-linejoin:round;"
         id="path3841" />
    </marker>
    <marker
       style="overflow:visible;"
       id="Arrow1Lend"
       refX="0.0"
       refY="0.0"
       orient="auto"
       inkscape:stockid="Arrow1Lend">
      <path
         transform="scale(0.8) rotate(180) translate(12.5,0)"
         style="fill-rule:evenodd;stroke:#000000;stroke-width:1.0pt;"
         d="M 0.0,0.0 L 5.0,-5.0 L -12.5,0.0 L 5.0,5.0 L 0.0,0.0 z "
         id="path3823" />
    </marker>
    <marker
       style="overflow:visible"
       id="Arrow1Lstart"
       refX="0.0"
       refY="0.0"
       orient="auto"
       inkscape:stockid="Arrow1Lstart">
      <path
         transform="scale(0.8) translate(12.5,0)"
         style="fill-rule:evenodd;stroke:#000000;stroke-width:1.0pt"
         d="M 0.0,0.0 L 5.0,-5.0 L -12.5,0.0 L 5.0,5.0 L 0.0,0.0 z "
         id="path3820" />
    </marker>
    <linearGradient
       id="linearGradient3788">
      <stop
         id="stop3790"
         offset="0"
         style="stop-color:#dfd4d4;stop-opacity:0.69565219;" />
      <stop
         id="stop3792"
         offset="1"
         style="stop-color:#000000;stop-opacity:0;" />
    </linearGradient>
    <linearGradient
       id="linearGradient3753">
      <stop
         id="stop3755"
         offset="0"
         style="stop-color:#dedde8;stop-opacity:1;" />
      <stop
         id="stop3757"
         offset="1"
         style="stop-color:#000000;stop-opacity:0;" />
    </linearGradient>
    <linearGradient
       gradientUnits="userSpaceOnUse"
       y2="25.745764"
       x2="12.781284"
       y1="25.745764"
       x1="3.5068505"
       id="linearGradient3769"
       xlink:href="#linearGradient3753"
       inkscape:collect="always" />
    <radialGradient
       gradientUnits="userSpaceOnUse"
       gradientTransform="matrix(1,0,0,1.0948585,0,-1.9562553)"
       r="6.9237847"
       fy="20.622881"
       fx="13.792373"
       cy="20.622881"
       cx="13.792373"
       id="radialGradient3794"
       xlink:href="#linearGradient3788"
       inkscape:collect="always" />
    <radialGradient
       r="6.9237847"
       fy="20.622881"
       fx="13.792373"
       cy="20.622881"
       cx="13.792373"
       gradientTransform="matrix(1,0,0,1.0948585,0,-1.9562553)"
       gradientUnits="userSpaceOnUse"
       id="radialGradient3055"
       xlink:href="#linearGradient3788"
       inkscape:collect="always" />
    <linearGradient
       y2="25.745764"
       x2="12.781284"
       y1="25.745764"
       x1="3.5068505"
       gradientUnits="userSpaceOnUse"
       id="linearGradient3057"
       xlink:href="#linearGradient3753"
       inkscape:collect="always" />
    <linearGradient
       id="linearGradient3788-3">
      <stop
         id="stop3790-7"
         offset="0"
         style="stop-color:#dfd4d4;stop-opacity:0.69565219;" />
      <stop
         id="stop3792-2"
         offset="1"
         style="stop-color:#000000;stop-opacity:0;" />
    </linearGradient>
    <linearGradient
       y2="25.745764"
       x2="12.781284"
       y1="25.745764"
       x1="3.5068505"
       gradientUnits="userSpaceOnUse"
       id="linearGradient3057-7"
       xlink:href="#linearGradient3753-2"
       inkscape:collect="always" />
    <linearGradient
       id="linearGradient3753-2">
      <stop
         id="stop3755-0"
         offset="0"
         style="stop-color:#dedde8;stop-opacity:1;" />
      <stop
         id="stop3757-7"
         offset="1"
         style="stop-color:#000000;stop-opacity:0;" />
    </linearGradient>
    <marker
       style="overflow:visible"
       id="TriangleOutMW"
       refX="0.0"
       refY="0.0"
       orient="auto"
       inkscape:stockid="TriangleOutMW">
      <path
         transform="scale(0.4)"
         style="stroke:#d32626;stroke-width:1.0pt;fill:#d32626;fill-rule:evenodd"
         d="M 5.77,0.0 L -2.88,5.0 L -2.88,-5.0 L 5.77,0.0 z "
         id="path3059" />
    </marker>
  </defs>
  <metadata
     id="metadata4">
    <rdf:RDF>
      <cc:Work
         rdf:about="">
        <dc:format>image/svg+xml</dc:format>
        <dc:type
           rdf:resource="http://purl.org/dc/dcmitype/StillImage" />
        <dc:title />
      </cc:Work>
    </rdf:RDF>
  </metadata>
  <g
     id="layer1">
    <g
       style="font-size:20px;font-style:normal;font-variant:normal;font-weight:normal;font-stretch:normal;line-height:125%;letter-spacing:0px;word-spacing:0px;fill:#000000;fill-opacity:1;stroke:none;font-family:IPAPMincho;-inkscape-font-specification:IPAPMincho"
       id="text3042">
      <path
         d="m 19.454052,5.6506882 c 0.20312,6.8e-6 0.393224,0.044278 0.570312,0.1328125 0.182287,0.088548 0.309891,0.195319 0.382813,0.3203125 0.04166,0.1250062 0.06249,0.2656311 0.0625,0.421875 -6e-6,0.255214 -0.0599,0.4557346 -0.179688,0.6015625 -0.119797,0.1406302 -0.231776,0.2109426 -0.335937,0.2109375 -0.06771,5.1e-6 -0.132818,-0.013016 -0.195313,-0.039063 -0.0573,-0.031245 -0.132817,-0.07812 -0.226562,-0.140625 -0.08855,-0.067703 -0.14063,-0.1067654 -0.15625,-0.1171875 -0.187505,-0.1249945 -0.380213,-0.1874944 -0.578125,-0.1875 -0.302087,5.6e-6 -0.585941,0.1796929 -0.851563,0.5390625 -0.265627,0.3541714 -0.39844,0.6432336 -0.398437,0.8671875 l 0,2.4062498 c -3e-6,0.604168 0.02604,0.989584 0.07813,1.15625 0.02083,0.07292 0.203122,0.132813 0.546875,0.179688 0.348954,0.04687 0.614579,0.07031 0.796875,0.07031 0.03125,0.04167 0.04687,0.117188 0.04687,0.226563 0.0052,0.109375 -0.01042,0.184895 -0.04687,0.226562 -1.067712,-0.05208 -1.713544,-0.07813 -1.9375,-0.07813 -0.09896,0 -0.682293,0.02604 -1.75,0.07813 -0.03646,-0.04167 -0.05469,-0.117187 -0.05469,-0.226562 0.0052,-0.109375 0.02344,-0.184896 0.05469,-0.226563 0.151041,10e-7 0.346353,-0.02344 0.585937,-0.07031 0.244791,-0.04687 0.377603,-0.106771 0.398438,-0.179688 0.04166,-0.130207 0.06771,-0.515624 0.07813,-1.15625 l 0,-2.9062498 c -2e-6,-0.4166616 -0.02604,-0.6874946 -0.07813,-0.8125 -0.03125,-0.078119 -0.13021,-0.1406194 -0.296875,-0.1875 -0.166668,-0.046869 -0.307293,-0.072911 -0.421875,-0.078125 -0.109376,-0.010411 -0.208334,-0.015619 -0.296875,-0.015625 -0.02083,-0.020828 -0.03386,-0.083328 -0.03906,-0.1875 0,-0.1041606 0.01302,-0.1770772 0.03906,-0.21875 0.890624,-0.1197854 1.635414,-0.3385351 2.234375,-0.65625 0.03646,6.8e-6 0.07291,0.031257 0.109375,0.09375 0.04166,0.062507 0.0625,0.11459 0.0625,0.15625 -0.01042,0.062506 -0.03125,0.2994855 -0.0625,0.7109375 -0.03125,0.4062555 -0.04688,0.6484427 -0.04687,0.7265625 -3e-6,0.020838 0.0052,0.036463 0.01563,0.046875 0.01041,0.00521 0.01823,0.00782 0.02344,0.00781 0.01041,-0.0052 0.01823,-0.013016 0.02344,-0.023437 0.17708,-0.3854112 0.447913,-0.7604108 0.8125,-1.125 0.364579,-0.3645767 0.708329,-0.5468682 1.03125,-0.546875"
         style="font-size:16px;font-family:Amiri;-inkscape-font-specification:Amiri"
         id="path3043" />
      <path
         d="m 22.461864,8.0256882 c -10e-7,4.4e-6 0.848956,4.4e-6 2.546875,0 0.223954,4.4e-6 0.343746,-0.1197871 0.359375,-0.359375 0.0052,-0.1041618 -0.01563,-0.23437 -0.0625,-0.390625 -0.04688,-0.1562447 -0.117192,-0.3177028 -0.210937,-0.484375 -0.09375,-0.1666608 -0.229171,-0.3072857 -0.40625,-0.421875 -0.177087,-0.1145771 -0.377608,-0.1718687 -0.601563,-0.171875 -0.244794,6.3e-6 -0.468752,0.062506 -0.671875,0.1875 -0.203127,0.1250059 -0.364585,0.2786516 -0.484375,0.4609375 -0.114585,0.1770888 -0.210939,0.3567761 -0.289062,0.5390625 -0.07292,0.1770882 -0.125002,0.3281297 -0.15625,0.453125 -0.02604,0.1250045 -0.03386,0.1875044 -0.02344,0.1875 m -0.07813,0.578125 c -0.02083,0.9531279 0.21354,1.6927108 0.703125,2.2187498 0.494789,0.520835 1.109372,0.781251 1.84375,0.78125 0.374996,10e-7 0.713537,-0.09115 1.015625,-0.273437 0.307287,-0.182291 0.541661,-0.367186 0.703125,-0.554688 0.0052,2e-6 0.01822,0.01042 0.03906,0.03125 0.02083,0.01563 0.03906,0.04167 0.05469,0.07813 0.02083,0.03646 0.03124,0.07292 0.03125,0.109375 -6e-6,0.08333 -0.03126,0.177085 -0.09375,0.28125 -0.08334,0.135418 -0.187505,0.270834 -0.3125,0.40625 -0.125005,0.135417 -0.281255,0.276042 -0.46875,0.421875 -0.187505,0.145834 -0.414067,0.265625 -0.679687,0.359375 -0.260421,0.09375 -0.533858,0.140625 -0.820313,0.140625 -0.911461,0 -1.66146,-0.307291 -2.25,-0.921875 -0.583334,-0.61979 -0.875,-1.395831 -0.875,-2.3281248 0,-0.5052047 0.09635,-0.9921834 0.289063,-1.4609375 0.192707,-0.468745 0.437499,-0.8645779 0.734375,-1.1875 0.296873,-0.3229106 0.627602,-0.5807228 0.992187,-0.7734375 0.364581,-0.19791 0.718747,-0.2968682 1.0625,-0.296875 0.354163,6.8e-6 0.674475,0.054694 0.960938,0.1640625 0.286453,0.1093815 0.513016,0.2447981 0.679687,0.40625 0.166662,0.1562561 0.304682,0.3359434 0.414063,0.5390625 0.109369,0.2031305 0.18489,0.3880262 0.226562,0.5546875 0.04166,0.1666717 0.06249,0.3203173 0.0625,0.4609375 -6e-6,0.2395878 -0.02865,0.4218793 -0.08594,0.546875 -0.05209,0.1197957 -0.148443,0.1822956 -0.289063,0.1875 -0.213547,0.015629 -0.890629,0.039066 -2.03125,0.070312 -1.135419,0.026046 -1.770835,0.039066 -1.90625,0.039063"
         style="font-size:16px;font-family:Amiri;-inkscape-font-specification:Amiri"
         id="path3045" />
      <path
         d="m 31.579052,1.5881882 c 0.223954,1.09e-5 0.369787,0.010428 0.4375,0.03125 0.07291,0.020844 0.17187,0.072927 0.296875,0.15625 0.03645,0.036469 0.07031,0.1015731 0.101562,0.1953125 0.03645,0.088552 0.05468,0.1692811 0.05469,0.2421875 -5e-6,0.1302184 -0.02344,0.2421975 -0.07031,0.3359375 -0.04167,0.088552 -0.09896,0.1536556 -0.171875,0.1953125 -0.07292,0.036468 -0.140629,0.06251 -0.203125,0.078125 -0.0573,0.010426 -0.117192,0.015635 -0.179687,0.015625 -0.09375,9.6e-6 -0.244796,-0.057282 -0.453125,-0.171875 -0.171879,-0.09374 -0.32292,-0.1406151 -0.453125,-0.140625 -0.255212,9.9e-6 -0.463545,0.1302181 -0.625,0.390625 -0.161461,0.2552176 -0.239586,0.6145923 -0.234375,1.078125 l 0,1.9375 1.84375,0 c 0.05208,6.5e-6 0.07812,0.057298 0.07812,0.171875 -5e-6,0.1666728 -0.07292,0.3229227 -0.21875,0.46875 l -1.703125,0 0,4.0937498 c -3e-6,0.604168 0.02604,0.989584 0.07813,1.15625 0.02083,0.07292 0.161455,0.132813 0.421875,0.179688 0.260413,0.04687 0.468746,0.07031 0.625,0.07031 0.03125,0.04167 0.04687,0.117188 0.04687,0.226563 0.0052,0.109375 -0.01042,0.184895 -0.04687,0.226562 -1.067711,-0.05208 -1.645836,-0.07813 -1.734375,-0.07813 -0.182294,0 -0.359377,0.0052 -0.53125,0.01563 -0.166668,0.0052 -0.359376,0.01563 -0.578125,0.03125 -0.218751,0.01563 -0.401042,0.02604 -0.546875,0.03125 -0.03646,-0.04167 -0.05469,-0.117187 -0.05469,-0.226562 0.0052,-0.109375 0.02344,-0.184896 0.05469,-0.226563 0.151041,10e-7 0.346353,-0.02344 0.585937,-0.07031 0.244791,-0.04687 0.377603,-0.106771 0.398438,-0.179688 0.05208,-0.166666 0.07812,-0.552082 0.07813,-1.15625 l 0,-4.0937498 -0.90625,0 c -0.05208,5.9e-6 -0.07813,-0.046869 -0.07813,-0.140625 -1e-6,-0.026036 0.05729,-0.1041605 0.171875,-0.234375 0.114582,-0.1354103 0.192707,-0.2239519 0.234375,-0.265625 l 0.578125,0 0,-0.296875 c -2e-6,-0.536451 0.09635,-1.0624921 0.289062,-1.578125 0.192707,-0.5208244 0.427082,-0.9557198 0.703125,-1.3046875 0.281248,-0.3489483 0.575518,-0.630198 0.882813,-0.84375 0.312496,-0.2135309 0.588538,-0.3203016 0.828125,-0.3203125"
         style="font-size:16px;font-family:Amiri;-inkscape-font-specification:Amiri"
         id="path3047" />
    </g>
    <g
       id="g3016">
      <path
         style="font-size:medium;font-style:normal;font-variant:normal;font-weight:normal;font-stretch:normal;text-indent:0;text-align:start;text-decoration:none;line-height:normal;letter-spacing:normal;word-spacing:normal;text-transform:none;direction:ltr;block-progression:tb;writing-mode:lr-tb;text-anchor:start;baseline-shift:baseline;color:#000000;fill:#d32626;fill-opacity:1;fill-rule:nonzero;stroke:none;stroke-width:1.14845598;marker:none;visibility:visible;display:inline;overflow:visible;enable-background:accumulate;font-family:Sans;-inkscape-font-specification:Sans"
         d="M 13.0625,16.21875 14,16.875 14.25,16.5 13.34375,15.84375 z M 11.0625,19 12,19.6875 13.34375,17.8125 12.40625,17.125 z M 9.28125,21.5 9.0625,21.8125 10,22.46875 l 0.21875,-0.3125 1.09375,-1.5625 -0.90625,-0.65625 z m -2.25,3.09375 0.9375,0.6875 1.34375,-1.875 -0.9375,-0.6875 z m -2,2.8125 0.9375,0.65625 1.34375,-1.875 -0.9375,-0.65625 z m -2,2.78125 0.9375,0.6875 L 5.28125,29 4.375,28.34375 z"
         id="path3814"
         inkscape:connector-curvature="0" />
      <path
         id="path3022"
         d="M 15.340592,14.026331 14.888765,18.593782 11.15721,15.91447 15.340592,14.026331 z"
         style="fill:#d32626;fill-rule:evenodd;stroke:#d32626;stroke-width:0.45938239pt"
         inkscape:connector-curvature="0" />
    </g>
  </g>
</svg>
